<svg id="Layer_1" data-name="Layer 1" xmlns="http://www.w3.org/2000/svg" viewBox="0 0 792 214"><title>Artboard 1 copy 9</title><path d="M155.45,47.62a7.81,7.81,0,0,1,2.88.61A10.49,10.49,0,0,1,161.21,50a9.47,9.47,0,0,1,2.21,2.72,8.45,8.45,0,0,1,1,3.65v.83a8.84,8.84,0,0,1-.93,3.49,8.75,8.75,0,0,1-2.16,2.78l-62.4,65.69h59a9.38,9.38,0,0,1,6.58,2.46,8.06,8.06,0,0,1,2.67,6.17,8.67,8.67,0,0,1-.72,3.5,9.35,9.35,0,0,1-1.95,2.87,9,9,0,0,1-2.93,2,9.25,9.25,0,0,1-3.65.72h-78a9.23,9.23,0,0,1-6.47-2.68,9.38,9.38,0,0,1-2-2.87,8.67,8.67,0,0,1-.72-3.5,8.82,8.82,0,0,1,2.78-6.27l62.4-65.9H81.33a8.95,8.95,0,0,1-9-9,8.54,8.54,0,0,1,2.62-6.37,8.8,8.8,0,0,1,6.42-2.57Z" style="fill:#fff"/><path d="M191.43,106.11a30.39,30.39,0,0,0,3.91,9.71,31.34,31.34,0,0,0,6.78,7.76,30.83,30.83,0,0,0,9,5.14,29.84,29.84,0,0,0,10.53,1.85,33.56,33.56,0,0,0,8.84-1,29.39,29.39,0,0,0,7-3,11,11,0,0,1,5.45-1.65,7.89,7.89,0,0,1,3.45.77,9.76,9.76,0,0,1,4.78,5.09,9.37,9.37,0,0,1,.72,3.6,8.09,8.09,0,0,1-2.47,5.81,20,20,0,0,1-6.63,4.26,43.8,43.8,0,0,1-9.66,2.68,69.84,69.84,0,0,1-11.47.92,49,49,0,0,1-19.58-4,51.45,51.45,0,0,1-16-10.74,50.47,50.47,0,0,1-10.79-15.93,50.41,50.41,0,0,1,0-39.17A50.47,50.47,0,0,1,186,62.32a51.3,51.3,0,0,1,16-10.75,50.43,50.43,0,0,1,39,0,50.92,50.92,0,0,1,16,10.69,51.47,51.47,0,0,1,10.84,15.88A48.7,48.7,0,0,1,272,97.47a8.38,8.38,0,0,1-2.47,6.17,8.62,8.62,0,0,1-6.38,2.47Zm62-15.22a29.42,29.42,0,0,0-3.75-10.28,32.52,32.52,0,0,0-7-8.22,31.6,31.6,0,0,0-9.46-5.45A32.31,32.31,0,0,0,222,65a31.15,31.15,0,0,0-27.45,15.83,31,31,0,0,0-3.59,10.07Z" style="fill:#fff"/><path d="M283.64,96.45V96A49,49,0,0,1,297.33,61.8a47.28,47.28,0,0,1,15-10.38A45.85,45.85,0,0,1,331,47.62a46.46,46.46,0,0,1,18.78,3.8A47.38,47.38,0,0,1,375,77.22,48.73,48.73,0,0,1,378.63,96v41.84A8.6,8.6,0,0,1,376,144.3a8.82,8.82,0,0,1-6.41,2.52,9.17,9.17,0,0,1-6.51-2.52,8.43,8.43,0,0,1-2.69-6.43V96.24a32,32,0,0,0-2.36-11.77,30.31,30.31,0,0,0-6.22-9.61,29.89,29.89,0,0,0-9.3-6.53,27.93,27.93,0,0,0-11.62-2.42,28.64,28.64,0,0,0-11.57,2.32,28.06,28.06,0,0,0-9.2,6.42,30.14,30.14,0,0,0-6.11,9.61A31.15,31.15,0,0,0,301.84,96v41.84a8.7,8.7,0,0,1-2.52,6.43,8.58,8.58,0,0,1-6.32,2.52,9.69,9.69,0,0,1-3.55-.67,9.59,9.59,0,0,1-3-1.85,9,9,0,0,1-2.06-2.83,8.39,8.39,0,0,1-.77-3.6Z" style="fill:#fff"/><path d="M443.08,148.05a48,48,0,0,1-19.43-4,50.07,50.07,0,0,1-26.41-26.71,50.83,50.83,0,0,1,0-39.1,51.2,51.2,0,0,1,10.65-16,50.19,50.19,0,0,1,15.79-10.81,49.91,49.91,0,0,1,38.85,0,50,50,0,0,1,15.7,10.65,51.16,51.16,0,0,1,14.71,35.15v40.95a9.08,9.08,0,0,1-2.69,6.64,8.9,8.9,0,0,1-6.61,2.73,8.27,8.27,0,0,1-6.41-2.74,9.57,9.57,0,0,1-2.48-6.68l-.11-1.44a49.91,49.91,0,0,1-14.49,8.37A48.35,48.35,0,0,1,443.08,148.05Zm0-18.3a30.87,30.87,0,0,0,12.54-2.51,31.62,31.62,0,0,0,10-6.88,32.55,32.55,0,0,0,6.68-34.89,31.32,31.32,0,0,0-6.68-10.11,32,32,0,0,0-10-6.83,32.31,32.31,0,0,0-25,0,31.3,31.3,0,0,0-10,6.83A32.5,32.5,0,0,0,414,85.47a32.19,32.19,0,0,0,0,24.73,33.21,33.21,0,0,0,6.68,10.16,31,31,0,0,0,10,6.88A30.62,30.62,0,0,0,443.08,129.75Z" style="fill:#fff"/><path d="M506.92,97.88a48.83,48.83,0,0,1,4-19.57,50.78,50.78,0,0,1,26.73-26.83,48.1,48.1,0,0,1,19.48-4,48.94,48.94,0,0,1,19.48,3.91,50.29,50.29,0,0,1,15.88,10.7A50.82,50.82,0,0,1,603.19,78a49.37,49.37,0,0,1,4.07,19.39V173a9.15,9.15,0,0,1-2.73,6.74,8.9,8.9,0,0,1-6.53,2.73,8.24,8.24,0,0,1-6.47-2.78,9.69,9.69,0,0,1-2.47-6.68V136.64a50.25,50.25,0,0,1-14.6,8.45,48.82,48.82,0,0,1-17.37,3.06,48.26,48.26,0,0,1-19.48-4,51.61,51.61,0,0,1-15.94-10.77,50.6,50.6,0,0,1-10.79-16A48.88,48.88,0,0,1,506.92,97.88Zm18.2,0a30.78,30.78,0,0,0,2.52,12.39,33.17,33.17,0,0,0,6.83,10.18,32.08,32.08,0,0,0,10.13,6.89,32.58,32.58,0,0,0,25.08,0,31.91,31.91,0,0,0,16.91-17.07,32,32,0,0,0-6.78-34.9,32.62,32.62,0,0,0-10.13-6.84,32.58,32.58,0,0,0-25.08,0,32,32,0,0,0-17,17A30.76,30.76,0,0,0,525.12,97.88Z" style="fill:#fff"/><path d="M620.93,97.88a48.8,48.8,0,0,1,4-19.53,50.92,50.92,0,0,1,26.73-26.78,48.46,48.46,0,0,1,19.48-4,49.09,49.09,0,0,1,19.64,4,50.22,50.22,0,0,1,26.62,26.78,50.76,50.76,0,0,1,0,39.07,49.87,49.87,0,0,1-10.69,15.93,50.84,50.84,0,0,1-15.93,10.74,48.92,48.92,0,0,1-19.64,4,48.3,48.3,0,0,1-19.48-4,51.77,51.77,0,0,1-15.93-10.74,50.33,50.33,0,0,1-10.8-15.93A48.81,48.81,0,0,1,620.93,97.88Zm18.19,0a30.59,30.59,0,0,0,2.52,12.35,33,33,0,0,0,6.84,10.15,31.84,31.84,0,0,0,10.12,6.86,32.6,32.6,0,0,0,25.09,0,32,32,0,0,0,10.12-6.86,32.35,32.35,0,0,0,6.79-10.15,31.74,31.74,0,0,0-6.79-34.78,32.35,32.35,0,0,0-10.12-6.82,32.6,32.6,0,0,0-25.09,0,32.12,32.12,0,0,0-17,16.91A30.57,30.57,0,0,0,639.12,97.88Z" style="fill:#fff"/><circle cx="101.02" cy="170.32" r="10.69" style="fill:#fff"/><circle cx="133.65" cy="170.32" r="10.69" style="fill:#fff"/></svg>