<?xml version="1.0" encoding="utf-8"?>
<!-- Generator: Adobe Illustrator 22.1.0, SVG Export Plug-In . SVG Version: 6.00 Build 0)  -->
<svg version="1.1" id="Layer_1" xmlns="http://www.w3.org/2000/svg" xmlns:xlink="http://www.w3.org/1999/xlink" x="0px" y="0px"
	 viewBox="0 0 117.4 28.2" style="enable-background:new 0 0 117.4 28.2;" xml:space="preserve">
<style type="text/css">
	.st0{fill:#2D50A7;}
	.st1{fill:#73A1FB;}
	.st2{fill:#355EC9;}
	.st3{fill:#C4D9FD;}
	.st4{fill:#3D6DEB;}
	.st5{fill:#007AFF;}
</style>
<g id="loading" transform="translate(0 -8.292)">
	<path id="Path_868" class="st0" d="M28.2,21.7h-5.4c-0.7,0-1.3,0.7-1.3,1.4c0,0.7,0.6,1.3,1.3,1.3h5.4c0.7,0,1.3-0.6,1.4-1.4
		C29.6,22.3,29,21.7,28.2,21.7z"/>
	<path id="Path_869" class="st1" d="M6.7,21.7H1.4c-0.7,0-1.4,0.6-1.4,1.3s0.6,1.4,1.3,1.4c0,0,0.1,0,0.1,0h5.4
		c0.7,0,1.4-0.6,1.4-1.3c0-0.7-0.6-1.4-1.3-1.4C6.8,21.7,6.8,21.7,6.7,21.7z"/>
	<path id="Path_870" class="st2" d="M23.3,12.6l-3.8,3.8c-0.6,0.5-0.6,1.3-0.1,1.9c0.5,0.6,1.3,0.6,1.9,0.1c0,0,0.1-0.1,0.1-0.1
		l3.8-3.8c0.5-0.5,0.5-1.4,0-1.9c0,0,0,0,0,0C24.7,12.1,23.9,12.1,23.3,12.6z"/>
	<g id="Group_462" transform="translate(3.921 19.145)">
		<path id="Path_871" class="st3" d="M10.9,12c-0.7,0-1.3,0.6-1.4,1.4V16c0,0.7,0.6,1.4,1.3,1.4s1.4-0.6,1.4-1.3c0,0,0-0.1,0-0.1
			v-2.7C12.2,12.6,11.6,12,10.9,12z"/>
		<path id="Path_872" class="st3" d="M4.2,8.7l-3.8,3.8c-0.6,0.5-0.6,1.3-0.1,1.9s1.3,0.6,1.9,0.1c0,0,0.1-0.1,0.1-0.1l3.8-3.8
			c0.5-0.5,0.5-1.4,0-1.9c0,0,0,0,0,0C5.6,8.2,4.7,8.2,4.2,8.7z"/>
	</g>
	<path id="Path_873" class="st4" d="M14.8,8.3c-0.7,0-1.3,0.6-1.4,1.4V15c0,0.7,0.6,1.4,1.3,1.4c0.7,0,1.4-0.6,1.4-1.3
		c0,0,0-0.1,0-0.1V9.6C16.1,8.9,15.5,8.3,14.8,8.3z"/>
	<path id="Path_874" class="st5" d="M6.2,12.6c-0.6-0.5-1.4-0.4-1.9,0.1c-0.5,0.5-0.5,1.3,0,1.8l3.8,3.8c0.6,0.5,1.4,0.4,1.9-0.1
		c0.5-0.5,0.5-1.3,0-1.8L6.2,12.6z"/>
</g>
<g>
	<path class="st5" d="M37.5,19.5c-0.2-0.1-0.4-0.2-0.5-0.4c-0.3-0.3-0.5-0.7-0.5-1.2c0-0.4,0.2-0.8,0.5-1.1l6-6h-4.7
		c-0.2,0-0.4,0-0.6-0.1c-0.2-0.1-0.4-0.2-0.5-0.4c-0.3-0.3-0.5-0.7-0.5-1.2c0-0.4,0.2-0.8,0.5-1.2c0.1-0.2,0.3-0.3,0.5-0.4
		s0.4-0.1,0.6-0.1h8.4c0.2,0,0.3,0,0.5,0.1c0.2,0.1,0.4,0.2,0.5,0.3c0.4,0.3,0.6,0.7,0.6,1.3c0,0.3-0.1,0.5-0.2,0.7
		c-0.1,0.2-0.3,0.4-0.5,0.6l-5.9,5.9h5.1c0.2,0,0.5,0,0.7,0.1c0.2,0.1,0.4,0.2,0.5,0.3c0.3,0.3,0.5,0.7,0.5,1.1c0,0.2,0,0.4-0.1,0.6
		c-0.1,0.2-0.2,0.4-0.4,0.5c-0.2,0.2-0.3,0.3-0.5,0.4c-0.2,0.1-0.4,0.1-0.7,0.1h-8.8C37.9,19.6,37.7,19.6,37.5,19.5z"/>
	<path class="st5" d="M53,19.3c-0.8-0.3-1.4-0.8-2-1.3c-0.6-0.6-1-1.2-1.3-2s-0.5-1.5-0.5-2.4c0-0.8,0.2-1.6,0.5-2.4s0.8-1.4,1.3-2
		c0.6-0.6,1.2-1,2-1.3s1.5-0.5,2.4-0.5c0.8,0,1.6,0.2,2.4,0.5c0.7,0.3,1.4,0.7,2,1.3c0.6,0.6,1,1.2,1.3,2s0.5,1.5,0.5,2.3
		c0,0.5-0.2,0.9-0.5,1.2c-0.3,0.3-0.7,0.4-1.2,0.4h-7c0.3,0.4,0.6,0.8,1.1,1s0.9,0.4,1.4,0.4c0.3,0,0.6,0,0.8-0.1
		c0.2-0.1,0.4-0.1,0.6-0.2c0.3-0.2,0.6-0.3,1-0.3c0.5,0,0.8,0.2,1.2,0.5c0.1,0.2,0.3,0.3,0.3,0.6s0.1,0.4,0.1,0.7
		c0,0.3-0.1,0.6-0.2,0.8s-0.4,0.5-0.7,0.7c-0.7,0.4-1.7,0.6-3,0.6C54.5,19.7,53.7,19.6,53,19.3z M58.1,12.3
		c-0.2-0.5-0.6-0.9-1.1-1.2c-0.5-0.3-1-0.4-1.6-0.4c-0.6,0-1.1,0.2-1.6,0.5c-0.5,0.3-0.8,0.7-1,1.2H58.1z"/>
	<path class="st5" d="M63.9,19.5c-0.2-0.1-0.4-0.2-0.6-0.4c-0.3-0.3-0.5-0.7-0.5-1.2v-4.5c0-0.8,0.2-1.6,0.5-2.3s0.7-1.4,1.3-1.9
		c0.6-0.6,1.2-1,1.9-1.3c0.7-0.3,1.5-0.5,2.3-0.5c0.8,0,1.6,0.2,2.3,0.5c0.7,0.3,1.4,0.7,2,1.3c0.6,0.6,1,1.2,1.3,1.9
		s0.5,1.5,0.5,2.3V18c0,0.5-0.2,0.8-0.5,1.2c-0.2,0.2-0.3,0.3-0.5,0.4s-0.4,0.1-0.6,0.1c-0.2,0-0.5,0-0.7-0.1s-0.4-0.2-0.5-0.4
		c-0.3-0.3-0.5-0.7-0.5-1.2v-4.5c0-0.4-0.1-0.7-0.2-1s-0.4-0.6-0.6-0.9c-0.3-0.2-0.6-0.4-0.9-0.6s-0.7-0.2-1-0.2s-0.7,0.1-1,0.2
		c-0.3,0.1-0.6,0.3-0.8,0.5c-0.2,0.2-0.4,0.5-0.6,0.8c-0.1,0.3-0.2,0.6-0.2,1V18c0,0.5-0.2,0.9-0.5,1.2c-0.3,0.3-0.7,0.5-1.2,0.5
		C64.3,19.6,64.1,19.6,63.9,19.5z"/>
	<path class="st5" d="M80.4,19.3c-0.7-0.3-1.4-0.8-2-1.3c-0.6-0.6-1-1.2-1.3-2c-0.3-0.7-0.5-1.5-0.5-2.4c0-0.8,0.2-1.6,0.5-2.4
		c0.3-0.8,0.8-1.4,1.3-2c0.6-0.6,1.2-1,2-1.3s1.5-0.5,2.4-0.5c0.8,0,1.6,0.2,2.3,0.5c0.7,0.3,1.4,0.7,2,1.3c0.6,0.6,1,1.2,1.3,1.9
		c0.3,0.7,0.5,1.5,0.5,2.3V18c0,0.5-0.2,0.9-0.5,1.2c-0.2,0.2-0.3,0.3-0.6,0.4c-0.2,0.1-0.4,0.1-0.7,0.1c-0.3,0-0.6-0.1-0.8-0.2
		s-0.4-0.3-0.6-0.6c-0.9,0.5-2,0.8-3,0.8C81.9,19.7,81.1,19.6,80.4,19.3z M83.8,16.2c0.3-0.1,0.6-0.3,0.9-0.6
		c0.3-0.3,0.5-0.6,0.6-0.9c0.1-0.3,0.2-0.7,0.2-1.1s-0.1-0.7-0.2-1.1c-0.1-0.3-0.3-0.6-0.6-0.9c-0.3-0.3-0.6-0.4-0.9-0.6
		c-0.3-0.1-0.7-0.2-1.1-0.2c-0.4,0-0.7,0.1-1.1,0.2c-0.3,0.1-0.6,0.3-0.9,0.6c-0.3,0.3-0.5,0.6-0.6,0.9c-0.1,0.3-0.2,0.7-0.2,1.1
		s0.1,0.7,0.2,1.1c0.1,0.3,0.4,0.6,0.6,0.9c0.3,0.3,0.5,0.4,0.9,0.6s0.7,0.2,1.1,0.2C83.1,16.4,83.5,16.3,83.8,16.2z"/>
	<path class="st5" d="M99.9,23.5c-0.3-0.3-0.5-0.7-0.5-1.2v-3.1c-0.9,0.4-1.8,0.7-2.8,0.7c-0.8,0-1.6-0.2-2.4-0.5
		c-0.7-0.3-1.4-0.8-2-1.3c-0.6-0.6-1-1.2-1.3-2c-0.3-0.7-0.5-1.5-0.5-2.4c0-0.8,0.2-1.6,0.5-2.4c0.3-0.8,0.8-1.4,1.3-2
		c0.6-0.6,1.2-1,2-1.3s1.5-0.5,2.4-0.5c0.8,0,1.6,0.2,2.4,0.5c0.8,0.3,1.4,0.8,2,1.3c0.6,0.6,1,1.2,1.3,2c0.3,0.8,0.5,1.5,0.5,2.4
		v8.6c0,0.2,0,0.5-0.1,0.7c-0.1,0.2-0.2,0.4-0.4,0.6c-0.2,0.2-0.3,0.3-0.6,0.4c-0.2,0.1-0.4,0.1-0.7,0.1
		C100.7,24,100.3,23.8,99.9,23.5z M97.8,16.2c0.3-0.1,0.6-0.3,0.9-0.6c0.3-0.3,0.5-0.6,0.6-0.9c0.1-0.3,0.2-0.7,0.2-1.1
		s-0.1-0.7-0.2-1.1c-0.1-0.3-0.3-0.6-0.6-0.9c-0.3-0.3-0.6-0.4-0.9-0.6c-0.3-0.1-0.7-0.2-1.1-0.2c-0.4,0-0.7,0.1-1.1,0.2
		c-0.3,0.1-0.6,0.3-0.9,0.6c-0.3,0.3-0.5,0.6-0.6,0.9c-0.1,0.3-0.2,0.7-0.2,1.1s0.1,0.7,0.2,1.1c0.1,0.3,0.4,0.6,0.6,0.9
		c0.3,0.3,0.5,0.4,0.9,0.6s0.7,0.2,1.1,0.2C97.1,16.4,97.4,16.3,97.8,16.2z"/>
	<path class="st5" d="M108.3,19.3c-0.7-0.3-1.4-0.8-2-1.3c-0.6-0.6-1-1.2-1.3-2c-0.3-0.7-0.5-1.5-0.5-2.4c0-0.8,0.2-1.6,0.5-2.4
		c0.3-0.8,0.8-1.4,1.3-2c0.6-0.6,1.2-1,2-1.3s1.5-0.5,2.4-0.5c0.8,0,1.6,0.2,2.4,0.5c0.8,0.3,1.4,0.8,2,1.3c0.6,0.6,1,1.2,1.3,2
		c0.3,0.8,0.5,1.5,0.5,2.4c0,0.8-0.2,1.6-0.5,2.4c-0.3,0.7-0.8,1.4-1.3,2c-0.6,0.6-1.2,1-2,1.3c-0.8,0.3-1.5,0.5-2.4,0.5
		C109.8,19.7,109,19.6,108.3,19.3z M111.8,16.2c0.3-0.1,0.6-0.3,0.9-0.6c0.3-0.3,0.5-0.6,0.6-0.9c0.1-0.3,0.2-0.7,0.2-1.1
		s-0.1-0.7-0.2-1.1c-0.1-0.3-0.3-0.6-0.6-0.9c-0.3-0.3-0.6-0.4-0.9-0.6c-0.3-0.1-0.7-0.2-1.1-0.2c-0.4,0-0.7,0.1-1.1,0.2
		c-0.3,0.1-0.6,0.3-0.9,0.6c-0.3,0.3-0.5,0.6-0.6,0.9c-0.1,0.3-0.2,0.7-0.2,1.1s0.1,0.7,0.2,1.1c0.1,0.3,0.4,0.6,0.6,0.9
		c0.3,0.3,0.5,0.4,0.9,0.6s0.7,0.2,1.1,0.2C111,16.4,111.4,16.3,111.8,16.2z"/>
</g>
</svg>
